<svg xmlns="http://www.w3.org/2000/svg" fill="#FFF">
  <path 
    transform="translate(0.000000, 3.000000)" 
    d="M34.2788128 15.8742134s.935181 1.5194797.6756906 3.885558c-.2869352 2.6218447-3.9774352 9.072212-15.966277 9.2374086-11.9883615.165334-15.7231848-6.9848513-15.8885397-9.4858907-.1652176-2.49994.6601843-3.7193993.7842347-3.8847335 0 0-2.641423-1.7775136-3.6730725-3.6580346 0 0-.334552-.4224748-.160827-1.1396098.20364-.8393146.594317-2.0637217 3.730569-4.295801 3.136801-2.231942 7.200001-3.7602176 9.182201-3.6373508 2.166697.134274 2.769796 1.004374 3.07457 1.3845187.382168.4755246 1.430285 2.335293 1.430285 2.335293s.648383-.5898704 1.623907-.5784633c.882075.01017 1.395018.3104653 1.651078.4752497.283093-.867901 1.706928-3.657966 3.81702-5.2700768C26.85047-.50754 27.366158.103221 27.366158.103221s7.0780097 4.466495 6.9126548 15.7709924zm-3.3014498 4.7115762c.0308418-.077393.0333786-.2052934-.0125504-.2638928-.2224348-.2837303-.4658314-.552452-.6745142-.79468-.2343176.2398788-.4674336.4189396-.7169718.5681134-.2674292.1605282-.5831905.2490145-.8770555.0499856-.29026-.1968102-.214157-.5045546-.186119-.7841086.048867-.496724.108281-.9930563.165558-1.4893887.051403-.4449112.105343-.8898223.16182-1.3625323h1.212577c.072632-.8249585.142326-1.6204867.215492-2.4581048h-1.208171c.106278-1.00676.209618-1.9931602.313358-2.9683365-.095062.001305-.147133.007961-.195331.012268-.918979.076348-1.837023.159223-2.756536.229046-.214557.016053-.222034.138602-.237655.297303-.100402 1.023726-.206146 2.047061-.313892 3.070526-.177307 1.685481-.347804 3.273144-.521774 4.913403-.184249.109368-.306415.183367-.413493.250189-.842742.525958-1.751441.847928-2.753866.930411-.954227.079089-1.553439-.294302-1.6709313-1.082065-.05888-.394012-.0359154-.424291.3568837-.4886328.088787-.0147474.17704-.029756.265827-.046723 1.046752-.200595 2.062128-.487066 2.9788373-1.043433.6654353-.403409.981731-.945681.897216-1.744668-.1829146-1.2130974-.815372-1.8654554-1.885756-2.172286-.4009435-.11498-.736465-.1461723-1.248492-.1546555-.748882-.012268-1.4727966.0824826-2.111262.404453 0-.3782205.0154873-.748871-.003338-1.1184775-.0619508-1.23672-.572109-2.230298-1.7561138-2.765784-.5185696-.234658-1.094016-.395839-1.660117-.4727095-1.4515674-.197202-2.9037358-.088095-4.3392816.1754065-1.240081.2270887-2.4320967.6008715-3.455751 1.354571-1.078929.794158-1.702441 1.810837-1.511916 3.185637.107479.7758213.658226 1.3697757 1.303767 1.4202834.836601.065647 1.580142-.564198 1.665725-1.402795.0623515-.6122256-.161552-1.1105156-.7018844-1.580876.7348626-.504816 1.537684-.700843 2.174147-.794158-.35635 3.465648-.703487 6.840917-1.0538286 10.246203 1.09722 0 2.149046-.0088745 3.200471-.0088745.1447294 0 .158615-.1286835.1678274-.2050323.1480003-1.2752204.290861-2.550833.416097-3.8281412.021229-.2173008.0806425-.274856.3038785-.272376.570373.006134 1.147822.0249272 1.7099174-.049594.4564854-.060557.9463494-.178539 1.352767-.384224-.0040055.065125-.2082824.944245-.0568772 2.0997873.1735688 1.328339.9240527 2.34815 2.247847 2.7050967 1.718463.462791 3.3564164.257106 4.87888-.671739.3121567-.1897624.602016-.4133273.911636-.6277565.2594183.5678523.654754.9916207 1.2674513 1.1448403.3239057.0810473.673179.096578 1.0105697.0938374 1.1885444-.009136 2.718752-1.044478 3.1449295-2.1153186zm-15.9759212-8.3333074c.9443467-.1199393 1.7226015.5375738 1.7319475 1.424525.0069428.64394-.1243018 1.2485963-.536594 1.7647663-.3940007.4920256-.9350006.7163735-1.6068446.759703.1392554-1.3376046.275707-2.6468885.411491-3.9489943zm6.954226 4.8945318c-.3401944.49059-.7854646.814387-1.4458263.8949122.037117-.769622.1244353-1.1324418.4484745-1.6137655.0857162-.1271174.283184-.296651.411491-.3823965.2809142-.1871524.5714413-.0644723.689735.2428805.1181602.3082664.084381.5872984-.103874.8583693z" 
    fill-rule="evenodd"
  ></path>
</svg>