<?xml version="1.0" encoding="UTF-8"?>
<svg width="32px" height="32px" viewBox="0 0 32 32" version="1.1" xmlns="http://www.w3.org/2000/svg" xmlns:xlink="http://www.w3.org/1999/xlink">
    <!-- Generator: Sketch 45.1 (43504) - http://www.bohemiancoding.com/sketch -->
    <title>menu-icon-settings</title>
    <desc>Created with Sketch.</desc>
    <defs></defs>
    <g id="Page-1" stroke="none" stroke-width="1" fill="none" fill-rule="evenodd" stroke-linecap="round" stroke-linejoin="round">
        <path d="M21.1972509,12.9999034 L22.1711137,10.8574052 L21.1425948,9.82888627 L19.0000966,10.8027491 C18.6008198,10.57177 18.1724555,10.3854811 17.7218435,10.2507222 L17.2,8 L14.8,8 L14.2781565,10.2507222 C13.8275445,10.3854811 13.3991802,10.57177 12.9999034,10.8027491 L10.8574052,9.82888627 L9.82888627,10.8574052 L10.8027491,12.9999034 C10.57177,13.3991802 10.3854811,13.8275445 10.2507222,14.2781565 L8,14.8 L8,17.2 L10.2507222,17.7218435 C10.3854811,18.1724555 10.57177,18.6008198 10.8027491,19.0000966 L9.82888627,21.1425948 L10.8574052,22.1711137 L12.9999034,21.1972509 C13.3991802,21.42823 13.8275445,21.6145189 14.2781565,21.7492778 L14.8,24 L17.2,24 L17.7218435,21.7492778 C18.1724555,21.6145189 18.6008198,21.42823 19.0000966,21.1972509 L21.1425948,22.1711137 L22.1711137,21.1425948 L21.1972509,19.0000966 C21.42823,18.6008198 21.6145189,18.1724555 21.7492778,17.7218435 L24,17.2 L24,14.8 L21.7492778,14.2781565 C21.6145189,13.8275445 21.42823,13.3991802 21.1972509,12.9999034 L21.1972509,12.9999034 Z" id="Combined-Shape" stroke="#FFFFFF" stroke-width="1.75"></path>
        <circle id="Oval-4" stroke="#FFFFFF" stroke-width="1.75" cx="16" cy="16" r="1.49536133"></circle>
    </g>
</svg>