<svg width="32" height="32" viewBox="0 0 32 32" version="1.1" xmlns="http://www.w3.org/2000/svg" xmlns:xlink="http://www.w3.org/1999/xlink">
<title>menu-icon-payment</title>
<desc>Created using Figma</desc>
<g id="Canvas" transform="translate(-526 542)">
<g id="Union">
<use xlink:href="#path0_fill" transform="translate(537.125 -534.375)" fill="#FFFFFF"/>
</g>
</g>
<defs>
<path id="path0_fill" d="M 4.37497 0C 4.85822 0 5.24997 0.391724 5.24997 0.875L 5.24997 1.58752C 7.24692 1.99286 8.74997 3.75836 8.74997 5.875L 6.99997 5.875C 6.99997 4.42523 5.82474 3.25 4.375 3.25L 3.82608 3.25C 3.34491 3.2392 3.0032 3.35034 2.62042 3.64209C 1.25436 4.63556 1.60883 6.76221 3.22327 7.25897L 4.0246 7.50555C 4.08231 7.52344 4.12637 7.5354 4.18518 7.54907L 5.92313 7.95801C 9.13217 8.71307 9.82101 12.9741 7.01334 14.7018C 6.51102 15.0021 5.8494 15.2034 5.24997 15.243L 5.24997 15.875C 5.24997 16.3583 4.85822 16.75 4.37497 16.75C 3.89172 16.75 3.49997 16.3583 3.49997 15.875L 3.49997 15.1625C 1.50302 14.7571 0 12.9916 0 10.875L 1.75 10.875C 1.75 12.3248 2.92523 13.5 4.375 13.5L 5.07675 13.5C 5.47836 13.5083 5.75851 13.429 6.09616 13.2114C 7.57413 12.3019 7.21152 10.059 5.52231 9.6615L 3.78436 9.25256C 3.6969 9.23187 3.59589 9.20447 3.50995 9.17816L 2.70862 8.93158C -0.284149 8.01074 -0.941193 4.06848 1.59113 2.22675C 2.12082 1.85303 2.83163 1.59332 3.49997 1.52045L 3.49997 0.875C 3.49997 0.391724 3.89172 0 4.37497 0Z"/>
</defs>
</svg>
