<svg xmlns="http://www.w3.org/2000/svg" width="32" height="32" viewBox="0 0 32 32">
  <g fill="none" fill-rule="evenodd" transform="translate(7 7)">
    <path stroke="#FFFFFF" stroke-linecap="round" stroke-linejoin="round" stroke-width="1.75" d="M0.45,7.77857143 C0.610714286,7.45714286 0.803571429,7.13571429 0.867857143,6.81428571 C0.964285714,6.46071429 0.964285714,6.075 0.996428571,5.72142857 C0.996428571,5.23928571 1.02857143,4.82142857 1.22142857,4.5 C1.41428571,4.17857143 1.8,3.92142857 2.18571429,3.69642857 C2.475,3.50357143 2.79642857,3.31071429 3.05357143,3.05357143 C3.31071429,2.79642857 3.50357143,2.475 3.69642857,2.18571429 C3.95357143,1.8 4.17857143,1.41428571 4.5,1.22142857 C4.82142857,1.02857143 5.27142857,1.02857143 5.72142857,0.996428571 C6.075,0.996428571 6.46071429,0.964285714 6.81428571,0.867857143 C7.16785714,0.771428571 7.45714286,0.610714286 7.77857143,0.45 C8.19642857,0.225 8.58214286,3.55271368e-15 9,3.55271368e-15 C9.41785714,3.55271368e-15 9.80357143,0.225 10.2214286,0.45 C10.5428571,0.610714286 10.8642857,0.803571429 11.1857143,0.867857143 C11.5392857,0.964285714 11.925,0.964285714 12.2785714,0.996428571 C12.7607143,0.996428571 13.1785714,1.02857143 13.5,1.22142857 C13.8214286,1.41428571 14.0785714,1.8 14.3035714,2.18571429 C14.4964286,2.475 14.6892857,2.79642857 14.9464286,3.05357143 C15.2035714,3.31071429 15.525,3.50357143 15.8142857,3.69642857 C16.2,3.95357143 16.5857143,4.17857143 16.7785714,4.5 C16.9714286,4.82142857 16.9714286,5.27142857 17.0035714,5.72142857 C17.0035714,6.075 17.0357143,6.46071429 17.1321429,6.81428571 C17.2285714,7.16785714 17.3892857,7.45714286 17.55,7.77857143 C17.775,8.19642857 18,8.58214286 18,9 C18,9.41785714 17.775,9.80357143 17.55,10.2214286 C17.3892857,10.5428571 17.1964286,10.8642857 17.1321429,11.1857143 C17.0357143,11.5392857 17.0357143,11.8928571 17.0035714,12.2785714 C17.0035714,12.7607143 16.9714286,13.1785714 16.7785714,13.5 C16.5857143,13.8214286 16.2,14.0785714 15.8142857,14.3035714 C15.525,14.4964286 15.2035714,14.6892857 14.9464286,14.9464286 C14.6892857,15.2035714 14.4964286,15.525 14.3035714,15.8142857 C14.0464286,16.2 13.8214286,16.5857143 13.5,16.7785714 C13.1785714,16.9714286 12.7285714,16.9714286 12.2785714,17.0035714 C11.925,17.0035714 11.5392857,17.0357143 11.1857143,17.1321429 C10.8321429,17.2285714 10.5107143,17.3892857 10.2214286,17.55 C9.80357143,17.775 9.38571429,18 9,18 C8.61428571,18 8.19642857,17.775 7.77857143,17.55 C7.45714286,17.3892857 7.13571429,17.1964286 6.81428571,17.1321429 C6.46071429,17.0357143 6.10714286,17.0357143 5.72142857,17.0035714 C5.23928571,17.0035714 4.82142857,16.9714286 4.5,16.7785714 C4.17857143,16.5857143 3.92142857,16.2 3.69642857,15.8142857 C3.50357143,15.525 3.31071429,15.2035714 3.05357143,14.9464286 C2.79642857,14.6892857 2.475,14.4964286 2.18571429,14.3035714 C1.8,14.0464286 1.41428571,13.8214286 1.22142857,13.5 C1.02857143,13.1785714 1.02857143,12.7285714 0.996428571,12.2785714 C0.996428571,11.925 0.964285714,11.5392857 0.867857143,11.1857143 C0.771428571,10.8321429 0.610714286,10.5428571 0.45,10.2214286 C0.225,9.80357143 0,9.38571429 0,9 C0,8.61428571 0.225,8.19642857 0.45,7.77857143 Z"/>
    <path stroke="#FFFFFF" stroke-linecap="round" stroke-linejoin="round" stroke-width="1.75" d="M5.5,12.5 L12.5,5.5"/>
    <rect width="1" height="1" x="6" y="6" stroke="#FFFFFF" stroke-linecap="round" stroke-linejoin="round" stroke-width="1.75" rx=".5"/>
    <rect width="3" height="3" x="5" y="5" fill="#FFFFFF" rx="1.5"/>
    <rect width="3" height="3" x="10" y="10" fill="#FFFFFF" rx="1.5"/>
  </g>
</svg>
