<svg xmlns="http://www.w3.org/2000/svg" width="32" height="32" viewBox="0 0 32 32">
  <g fill="none" fill-rule="evenodd" stroke="#FFFFFF" stroke-linecap="round" stroke-linejoin="round" stroke-width="1.75" transform="rotate(-90 16 7)">
    <path d="M14,12 L14,12 L14,12 C14,13.1045695 13.1045695,14 12,14 L2,14 L2,14 C0.8954305,14 -3.0881846e-16,13.1045695 -4.4408921e-16,12 L0,2 L0,2 C-1.3527075e-16,0.8954305 0.8954305,6.46997646e-16 2,4.4408921e-16 L12,0 L12,0 C13.1045695,-2.02908437e-16 14,0.8954305 14,2 L14,2"/>
    <g transform="rotate(180 7 5)">
      <polyline points=".5 3 8 3 5.5 .5"/>
      <path d="M8,3 L5.5,5.5"/>
    </g>
  </g>
</svg>
